/* XPM */
static char * file_item_up_arrow_xpm[] = {
"11 12 51 1",
" 	c None",
".	c #FFFFFF",
"+	c #FDFDFD",
"@	c #181818",
"#	c #000000",
"$	c #919191",
"%	c #C4C4C4",
"&	c #3A3A3A",
"*	c #747474",
"=	c #010101",
"-	c #E0E0E0",
";	c #252525",
">	c #242424",
",	c #8C8C8C",
"'	c #D3D3D3",
")	c #161616",
"!	c #ABABAB",
"~	c #353535",
"{	c #848484",
"]	c #636363",
"^	c #F7F7F7",
"/	c #0E0E0E",
"(	c #DDDDDD",
"_	c #F8F8F8",
":	c #212121",
"<	c #B4B4B4",
"[	c #5E5E5E",
"}	c #606060",
"|	c #898989",
"1	c #2E2E2E",
"2	c #FCFCFC",
"3	c #DBDBDB",
"4	c #080808",
"5	c #BFBFBF",
"6	c #EBEBEB",
"7	c #0F0F0F",
"8	c #B9B9B9",
"9	c #7F7F7F",
"0	c #2B2B2B",
"a	c #FAFAFA",
"b	c #6B6B6B",
"c	c #4B4B4B",
"d	c #262626",
"e	c #050505",
"f	c #040404",
"g	c #D5D5D5",
"h	c #B7B7B7",
"i	c #0C0C0C",
"j	c #4E4E4E",
"k	c #696969",
"l	c #5C5C5C",
"...+@#$....",
"...%##&....",
"...*##=-...",
"...;#>#,...",
"..'#)!#~...",
"..{#]^/=(..",
"._:#<.[#}..",
".|#12.34=5.",
"67#8...9#0a",
"b#c...._d#,",
"efg.....h#i",
"jk.......l9"};
